<?xml version="1.0" encoding="utf-8"?>
<!-- Generated by IcoMoon.io -->
<!DOCTYPE svg PUBLIC "-//W3C//DTD SVG 1.1//EN" "http://www.w3.org/Graphics/SVG/1.1/DTD/svg11.dtd">
<svg version="1.1" xmlns="http://www.w3.org/2000/svg" xmlns:xlink="http://www.w3.org/1999/xlink" width="512" height="512" viewBox="0 0 512 512">
<g id="icomoon-ignore">
</g>
<path d="M64 160v320c0 17.6 14.4 32 32 32h288c17.6 0 32-14.4 32-32v-320h-352zM160 448h-32v-224h32v224zM224 448h-32v-224h32v224zM288 448h-32v-224h32v224zM352 448h-32v-224h32v224z"></path>
<path d="M424 64h-104v-40c0-13.2-10.8-24-24-24h-112c-13.2 0-24 10.8-24 24v40h-104c-13.2 0-24 10.8-24 24v40h416v-40c0-13.2-10.8-24-24-24zM288 64h-96v-31.599h96v31.599z"></path>
</svg>
