<?xml version="1.0" encoding="UTF-8" standalone="no"?>
<!-- Svg Vector Icons : http://www.onlinewebfonts.com/icon -->

<svg
   xmlns:dc="http://purl.org/dc/elements/1.1/"
   xmlns:cc="http://creativecommons.org/ns#"
   xmlns:rdf="http://www.w3.org/1999/02/22-rdf-syntax-ns#"
   xmlns:svg="http://www.w3.org/2000/svg"
   xmlns="http://www.w3.org/2000/svg"
   xmlns:sodipodi="http://sodipodi.sourceforge.net/DTD/sodipodi-0.dtd"
   xmlns:inkscape="http://www.inkscape.org/namespaces/inkscape"
   version="1.1"
   x="0px"
   y="0px"
   viewBox="0 0 1000 1000"
   enable-background="new 0 0 1000 1000"
   xml:space="preserve"
   id="svg4503"
   sodipodi:docname="midi-thick.svg"
   inkscape:version="0.92.0 r15299"><defs
     id="defs4507" /><sodipodi:namedview
     pagecolor="#ffffff"
     bordercolor="#666666"
     borderopacity="1"
     objecttolerance="10"
     gridtolerance="10"
     guidetolerance="10"
     inkscape:pageopacity="0"
     inkscape:pageshadow="2"
     inkscape:window-width="1920"
     inkscape:window-height="1017"
     id="namedview4505"
     showgrid="false"
     inkscape:zoom="0.848"
     inkscape:cx="314.99283"
     inkscape:cy="499.0157"
     inkscape:window-x="-8"
     inkscape:window-y="-8"
     inkscape:window-maximized="1"
     inkscape:current-layer="svg4503" /><metadata
     id="metadata4485"> Svg Vector Icons : http://www.onlinewebfonts.com/icon <rdf:RDF><cc:Work
     rdf:about=""><dc:format>image/svg+xml</dc:format><dc:type
       rdf:resource="http://purl.org/dc/dcmitype/StillImage" /><dc:title /></cc:Work></rdf:RDF></metadata><g
     id="g4501"
     transform="matrix(1.0376056,0,0,1.0376056,-18.800294,-18.767486)"><g
       transform="matrix(0.1,0,0,-0.1,0,502)"
       id="g4499"><path
         style="color:#000000;font-style:normal;font-variant:normal;font-weight:normal;font-stretch:normal;font-size:medium;line-height:normal;font-family:sans-serif;font-variant-ligatures:normal;font-variant-position:normal;font-variant-caps:normal;font-variant-numeric:normal;font-variant-alternates:normal;font-feature-settings:normal;text-indent:0;text-align:start;text-decoration:none;text-decoration-line:none;text-decoration-style:solid;text-decoration-color:#000000;letter-spacing:normal;word-spacing:normal;text-transform:none;writing-mode:lr-tb;direction:ltr;text-orientation:mixed;dominant-baseline:auto;baseline-shift:baseline;text-anchor:start;white-space:normal;shape-padding:0;clip-rule:nonzero;display:inline;overflow:visible;visibility:visible;opacity:1;isolation:auto;mix-blend-mode:normal;color-interpolation:sRGB;color-interpolation-filters:linearRGB;solid-color:#000000;solid-opacity:1;vector-effect:none;fill:#000000;fill-opacity:1;fill-rule:nonzero;stroke:none;stroke-width:600;stroke-linecap:butt;stroke-linejoin:miter;stroke-miterlimit:4;stroke-dasharray:none;stroke-dashoffset:0;stroke-opacity:1;color-rendering:auto;image-rendering:auto;shape-rendering:auto;text-rendering:auto;enable-background:accumulate"
         d="m 3538.9922,-4674.334 -372.5293,150.0215 -0.666,0.2715 c -396.8142,162.0225 -817.3695,408.7781 -1175.2324,694.5859 -960.9981,764.4955 -1599.72891,1900.6327 -1761.51372,3129.69143 -43.25905,321.29198 -49.54653,857.31025 -11.97851,1167.79883 l 0.0293,0.23828 0.0293,0.23828 c 105.52731,860.64098 417.49118,1647.79238 928.93943,2332.47658 224.2739,301.1967 659.7415,741.5686 953.5293,961.3359 l 0.1348,0.1016 0.1347,0.1 c 408.1141,304.5754 843.0334,537.8482 1292.6407,695.8965 l 0.3535,0.125 0.3535,0.123 c 734.3911,256.0997 1426.975,329.2853 2222.2148,234.9531 1059.9625,-125.3511 2057.1179,-629.6498 2828.8829,-1419.8027 l 0.3066,-0.3144 0.3066,-0.3164 c 749.9615,-772.3469 1207.2065,-1730.004 1335.4278,-2804.74419 39.4401,-315.98981 32.0688,-836.19422 -9.7325,-1166.24023 l -0.049,-0.37696 -0.049,-0.3789 C 9554.4242,-2370.7271 8465.0274,-3817.1678 6917.3613,-4486.1406 c -142.5612,-75.3202 -274.0781,-105.0801 -274.0781,-105.0801 l -180.5312,-44.0508 -119.8516,142.0117 c 0,0 -97.9708,115.9192 -185.4219,227.959 l -1.3203,1.6934 -1.2969,1.7109 c -248.9389,328.5242 -400.6387,452.2267 -676.5429,580.7559 l -0.586,0.2734 -0.584,0.2754 c -199.6013,94.0313 -294.8911,112.1515 -547.5937,100.1309 l -1.9414,-0.092 -1.9434,-0.068 c -150.4766,-5.2046 -219.3946,-18.3065 -268.2383,-35.2715 l -2.1757,-0.7558 -2.1875,-0.7227 c -337.5132,-111.4516 -630.3972,-339.9228 -871.7403,-700.1191 l -0.5234,-0.7793 z m -256.1192,690.8242 c 10.46,15.6112 21.0684,31.0383 31.7696,46.3496 l -0.2364,0.096 -30.4843,-44.8906 z m 3383.3555,42.3965 2.5996,1.1153 c 1357.7879,582.4686 2317.0791,1852.9591 2506.5762,3317.83394 30.9429,244.63956 35.1739,811.79626 9.5176,1016.81054 l -0.1114,0.88868 -0.1054,0.88867 C 9071.3671,1348.1063 8678.175,2171.5642 8014.7656,2854.9004 7334.3765,3551.359 6461.8619,3989.3434 5544.9668,4097.7754 l -0.055,0.01 -0.057,0.01 C 4823.1266,4183.4147 4251.446,4122.4462 3591.2852,3892.3027 3201.8211,3755.3718 2820.8654,3551.9089 2458.8906,3281.791 2266.0508,3137.4925 1782.3593,2650.9092 1627.2324,2442.5469 l -0.1484,-0.1992 -0.1485,-0.1993 C 1176.7717,1839.5898 906.41731,1159.5526 812.7168,395.85156 789.1101,200.52771 794.21243,-401.03047 823.71289,-619.93359 l 0.0644,-0.47657 0.0625,-0.47851 C 964.97917,-1694.2561 1529.077,-2695.7463 2364.3477,-3360.1133 l 0.2402,-0.1894 0.2402,-0.1934 c 285.4859,-228.029 635.018,-436.9849 950.7637,-575.3262 298.4503,426.4978 690.0374,735.803 1146.7227,887.295 126.2543,43.5804 263.0349,61.1873 440.0781,67.4355 309.9274,14.5697 566.5826,-32.4857 830.0527,-156.5293 348.8105,-162.64 617.835,-388.701 900.6309,-761.9062 l -2.6192,3.4043 c 11.6305,-14.9007 23.747,-29.9292 35.7715,-44.9903 z"
         id="path4487"
         inkscape:connector-curvature="0" /></g></g><path
     style="color:#000000;font-style:normal;font-variant:normal;font-weight:normal;font-stretch:normal;font-size:medium;line-height:normal;font-family:sans-serif;font-variant-ligatures:normal;font-variant-position:normal;font-variant-caps:normal;font-variant-numeric:normal;font-variant-alternates:normal;font-feature-settings:normal;text-indent:0;text-align:start;text-decoration:none;text-decoration-line:none;text-decoration-style:solid;text-decoration-color:#000000;letter-spacing:normal;word-spacing:normal;text-transform:none;writing-mode:lr-tb;direction:ltr;text-orientation:mixed;dominant-baseline:auto;baseline-shift:baseline;text-anchor:start;white-space:normal;shape-padding:0;clip-rule:nonzero;display:inline;overflow:visible;visibility:visible;opacity:1;isolation:auto;mix-blend-mode:normal;color-interpolation:sRGB;color-interpolation-filters:linearRGB;solid-color:#000000;solid-opacity:1;vector-effect:none;fill:#000000;fill-opacity:1;fill-rule:nonzero;stroke:none;stroke-width:62.25634003;stroke-linecap:butt;stroke-linejoin:bevel;stroke-miterlimit:4;stroke-dasharray:none;stroke-dashoffset:0;stroke-opacity:1;color-rendering:auto;image-rendering:auto;shape-rendering:auto;text-rendering:auto;enable-background:accumulate"
     d="m 195.32746,400.38669 c -55.34186,0 -100.872697,45.53084 -100.872697,100.8727 0,55.34185 45.530837,100.87269 100.872697,100.87269 55.34185,0 100.87269,-45.53084 100.87269,-100.87269 0,-55.34186 -45.53084,-100.8727 -100.87269,-100.8727 z m 0,62.25634 c 21.69604,0 38.61635,16.92033 38.61635,38.61636 0,21.69603 -16.92031,38.61635 -38.61635,38.61635 -21.69603,0 -38.61636,-16.92032 -38.61636,-38.61635 0,-21.69603 16.92033,-38.61636 38.61636,-38.61636 z"
     id="path4549"
     inkscape:connector-curvature="0" /><path
     style="color:#000000;font-style:normal;font-variant:normal;font-weight:normal;font-stretch:normal;font-size:medium;line-height:normal;font-family:sans-serif;font-variant-ligatures:normal;font-variant-position:normal;font-variant-caps:normal;font-variant-numeric:normal;font-variant-alternates:normal;font-feature-settings:normal;text-indent:0;text-align:start;text-decoration:none;text-decoration-line:none;text-decoration-style:solid;text-decoration-color:#000000;letter-spacing:normal;word-spacing:normal;text-transform:none;writing-mode:lr-tb;direction:ltr;text-orientation:mixed;dominant-baseline:auto;baseline-shift:baseline;text-anchor:start;white-space:normal;shape-padding:0;clip-rule:nonzero;display:inline;overflow:visible;visibility:visible;opacity:1;isolation:auto;mix-blend-mode:normal;color-interpolation:sRGB;color-interpolation-filters:linearRGB;solid-color:#000000;solid-opacity:1;vector-effect:none;fill:#000000;fill-opacity:1;fill-rule:nonzero;stroke:none;stroke-width:62.25634003;stroke-linecap:butt;stroke-linejoin:bevel;stroke-miterlimit:4;stroke-dasharray:none;stroke-dashoffset:0;stroke-opacity:1;color-rendering:auto;image-rendering:auto;shape-rendering:auto;text-rendering:auto;enable-background:accumulate"
     d="m 280.98059,188.705 c -55.34185,0 -100.87471,45.53085 -100.87471,100.8727 0,55.34186 45.53286,100.8727 100.87471,100.8727 55.34185,0 100.87269,-45.53084 100.87269,-100.8727 0,-55.34185 -45.53084,-100.87269 -100.87269,-100.8727 z m 0,62.25634 c 21.69605,0 38.61636,16.92033 38.61636,38.61636 0,21.69603 -16.92031,38.61636 -38.61636,38.61636 -21.69603,0 -38.61837,-16.92033 -38.61837,-38.61636 0,-21.69603 16.92234,-38.61636 38.61837,-38.61636 z"
     id="path4549-4"
     inkscape:connector-curvature="0" /><path
     style="color:#000000;font-style:normal;font-variant:normal;font-weight:normal;font-stretch:normal;font-size:medium;line-height:normal;font-family:sans-serif;font-variant-ligatures:normal;font-variant-position:normal;font-variant-caps:normal;font-variant-numeric:normal;font-variant-alternates:normal;font-feature-settings:normal;text-indent:0;text-align:start;text-decoration:none;text-decoration-line:none;text-decoration-style:solid;text-decoration-color:#000000;letter-spacing:normal;word-spacing:normal;text-transform:none;writing-mode:lr-tb;direction:ltr;text-orientation:mixed;dominant-baseline:auto;baseline-shift:baseline;text-anchor:start;white-space:normal;shape-padding:0;clip-rule:nonzero;display:inline;overflow:visible;visibility:visible;opacity:1;isolation:auto;mix-blend-mode:normal;color-interpolation:sRGB;color-interpolation-filters:linearRGB;solid-color:#000000;solid-opacity:1;vector-effect:none;fill:#000000;fill-opacity:1;fill-rule:nonzero;stroke:none;stroke-width:62.25634003;stroke-linecap:butt;stroke-linejoin:bevel;stroke-miterlimit:4;stroke-dasharray:none;stroke-dashoffset:0;stroke-opacity:1;color-rendering:auto;image-rendering:auto;shape-rendering:auto;text-rendering:auto;enable-background:accumulate"
     d="m 498.77848,100.6058 c -55.34185,0 -100.87269,45.53084 -100.87269,100.87269 0,55.34186 45.53084,100.8727 100.87269,100.8727 55.34186,0 100.8727,-45.53084 100.8727,-100.8727 0,-55.34185 -45.53084,-100.8727 -100.8727,-100.87269 z m 0,62.25634 c 21.69603,0 38.61636,16.92032 38.61636,38.61635 0,21.69603 -16.92033,38.61636 -38.61636,38.61636 -21.69603,0 -38.61635,-16.92033 -38.61635,-38.61636 0,-21.69603 16.92032,-38.61635 38.61635,-38.61635 z"
     id="path4549-4-6"
     inkscape:connector-curvature="0" /><path
     style="color:#000000;font-style:normal;font-variant:normal;font-weight:normal;font-stretch:normal;font-size:medium;line-height:normal;font-family:sans-serif;font-variant-ligatures:normal;font-variant-position:normal;font-variant-caps:normal;font-variant-numeric:normal;font-variant-alternates:normal;font-feature-settings:normal;text-indent:0;text-align:start;text-decoration:none;text-decoration-line:none;text-decoration-style:solid;text-decoration-color:#000000;letter-spacing:normal;word-spacing:normal;text-transform:none;writing-mode:lr-tb;direction:ltr;text-orientation:mixed;dominant-baseline:auto;baseline-shift:baseline;text-anchor:start;white-space:normal;shape-padding:0;clip-rule:nonzero;display:inline;overflow:visible;visibility:visible;opacity:1;isolation:auto;mix-blend-mode:normal;color-interpolation:sRGB;color-interpolation-filters:linearRGB;solid-color:#000000;solid-opacity:1;vector-effect:none;fill:#000000;fill-opacity:1;fill-rule:nonzero;stroke:none;stroke-width:62.25634003;stroke-linecap:butt;stroke-linejoin:bevel;stroke-miterlimit:4;stroke-dasharray:none;stroke-dashoffset:0;stroke-opacity:1;color-rendering:auto;image-rendering:auto;shape-rendering:auto;text-rendering:auto;enable-background:accumulate"
     d="m 719.02445,181.36273 c -55.34185,0 -100.87269,45.53084 -100.87269,100.8727 0,55.34186 45.53084,100.8727 100.87269,100.8727 55.34186,0 100.87473,-45.53084 100.87473,-100.8727 0,-55.34186 -45.53287,-100.8727 -100.87473,-100.8727 z m 0,62.25634 c 21.69603,0 38.61839,16.92033 38.61839,38.61636 0,21.69603 -16.92236,38.61636 -38.61839,38.61636 -21.69603,0 -38.61635,-16.92033 -38.61635,-38.61636 0,-21.69603 16.92032,-38.61636 38.61635,-38.61636 z"
     id="path4549-4-4"
     inkscape:connector-curvature="0" /><path
     style="color:#000000;font-style:normal;font-variant:normal;font-weight:normal;font-stretch:normal;font-size:medium;line-height:normal;font-family:sans-serif;font-variant-ligatures:normal;font-variant-position:normal;font-variant-caps:normal;font-variant-numeric:normal;font-variant-alternates:normal;font-feature-settings:normal;text-indent:0;text-align:start;text-decoration:none;text-decoration-line:none;text-decoration-style:solid;text-decoration-color:#000000;letter-spacing:normal;word-spacing:normal;text-transform:none;writing-mode:lr-tb;direction:ltr;text-orientation:mixed;dominant-baseline:auto;baseline-shift:baseline;text-anchor:start;white-space:normal;shape-padding:0;clip-rule:nonzero;display:inline;overflow:visible;visibility:visible;opacity:1;isolation:auto;mix-blend-mode:normal;color-interpolation:sRGB;color-interpolation-filters:linearRGB;solid-color:#000000;solid-opacity:1;vector-effect:none;fill:#000000;fill-opacity:1;fill-rule:nonzero;stroke:none;stroke-width:62.25634003;stroke-linecap:butt;stroke-linejoin:bevel;stroke-miterlimit:4;stroke-dasharray:none;stroke-dashoffset:0;stroke-opacity:1;color-rendering:auto;image-rendering:auto;shape-rendering:auto;text-rendering:auto;enable-background:accumulate"
     d="m 808.34771,401.6087 c -55.34185,0 -100.8727,45.53288 -100.8727,100.87474 0,55.34185 45.53085,100.87269 100.8727,100.87269 55.34186,0 100.8727,-45.53084 100.8727,-100.87269 0,-55.34186 -45.53084,-100.87474 -100.8727,-100.87474 z m 0,62.25634 c 21.69603,0 38.61636,16.92237 38.61636,38.6184 0,21.69602 -16.92033,38.61635 -38.61636,38.61635 -21.69603,0 -38.61636,-16.92033 -38.61636,-38.61635 0,-21.69603 16.92033,-38.61839 38.61636,-38.6184 z"
     id="path4549-4-0"
     inkscape:connector-curvature="0" /></svg>