<?xml version="1.0" encoding="UTF-8" standalone="no"?>
<!-- Svg Vector Icons : http://www.onlinewebfonts.com/icon -->

<svg
   xmlns:dc="http://purl.org/dc/elements/1.1/"
   xmlns:cc="http://creativecommons.org/ns#"
   xmlns:rdf="http://www.w3.org/1999/02/22-rdf-syntax-ns#"
   xmlns:svg="http://www.w3.org/2000/svg"
   xmlns="http://www.w3.org/2000/svg"
   xmlns:sodipodi="http://sodipodi.sourceforge.net/DTD/sodipodi-0.dtd"
   xmlns:inkscape="http://www.inkscape.org/namespaces/inkscape"
   version="1.1"
   x="0px"
   y="0px"
   viewBox="0 0 1000 1000"
   enable-background="new 0 0 1000 1000"
   xml:space="preserve"
   id="svg4503"
   sodipodi:docname="midi-color.svg"
   inkscape:version="0.92.0 r15299"><defs
     id="defs4507" /><sodipodi:namedview
     pagecolor="#ffffff"
     bordercolor="#666666"
     borderopacity="1"
     objecttolerance="10"
     gridtolerance="10"
     guidetolerance="10"
     inkscape:pageopacity="0"
     inkscape:pageshadow="2"
     inkscape:window-width="1920"
     inkscape:window-height="1017"
     id="namedview4505"
     showgrid="false"
     inkscape:zoom="0.848"
     inkscape:cx="314.99283"
     inkscape:cy="499.0157"
     inkscape:window-x="-8"
     inkscape:window-y="-8"
     inkscape:window-maximized="1"
     inkscape:current-layer="svg4503" /><metadata
     id="metadata4485"> Svg Vector Icons : http://www.onlinewebfonts.com/icon <rdf:RDF><cc:Work
     rdf:about=""><dc:format>image/svg+xml</dc:format><dc:type
       rdf:resource="http://purl.org/dc/dcmitype/StillImage" /><dc:title /></cc:Work></rdf:RDF></metadata><g
     id="g4501"
     transform="matrix(1.0376056,0,0,1.0376056,-18.800294,-18.767486)"><g
       transform="matrix(0.1,0,0,-0.1,0,502)"
       id="g4499"><path
         style="color:#000000;font-style:normal;font-variant:normal;font-weight:normal;font-stretch:normal;font-size:medium;line-height:normal;font-family:sans-serif;font-variant-ligatures:normal;font-variant-position:normal;font-variant-caps:normal;font-variant-numeric:normal;font-variant-alternates:normal;font-feature-settings:normal;text-indent:0;text-align:start;text-decoration:none;text-decoration-line:none;text-decoration-style:solid;text-decoration-color:#000000;letter-spacing:normal;word-spacing:normal;text-transform:none;writing-mode:lr-tb;direction:ltr;text-orientation:mixed;dominant-baseline:auto;baseline-shift:baseline;text-anchor:start;white-space:normal;shape-padding:0;clip-rule:nonzero;display:inline;overflow:visible;visibility:visible;opacity:1;isolation:auto;mix-blend-mode:normal;color-interpolation:sRGB;color-interpolation-filters:linearRGB;solid-color:#000000;solid-opacity:1;vector-effect:none;fill:#000000;fill-opacity:1;fill-rule:nonzero;stroke:none;stroke-width:62.25633621;stroke-linecap:butt;stroke-linejoin:miter;stroke-miterlimit:4;stroke-dasharray:none;stroke-dashoffset:0;stroke-opacity:1;color-rendering:auto;image-rendering:auto;shape-rendering:auto;text-rendering:auto;enable-background:accumulate"
         d="M 496.43164 11 C 440.57853 11.083112 388.0506 20.377184 333.28125 39.476562 L 333.24414 39.488281 L 333.20898 39.501953 C 286.55748 55.901133 241.43013 80.10607 199.08398 111.70898 L 199.06836 111.71875 L 199.05469 111.73047 C 168.5711 134.53365 123.38797 180.22618 100.11719 211.47852 C 47.049031 282.52173 14.678088 364.19746 3.7285156 453.49805 L 3.7265625 453.52148 L 3.7226562 453.54688 C -0.17542254 485.76334 0.47821362 541.38131 4.9667969 574.71875 C 21.753679 702.24657 88.028486 820.13255 187.74219 899.45703 C 224.87424 929.11261 268.50993 954.7158 309.68359 971.52734 L 309.75391 971.55664 L 348.4082 987.12109 L 373.49805 950.17578 L 373.55273 950.0957 C 398.59463 912.72153 428.98335 889.01545 464.00391 877.45117 L 464.23242 877.375 L 464.45703 877.29688 C 469.52508 875.53658 476.67553 874.1787 492.28906 873.63867 L 492.49219 873.63086 L 492.69336 873.62109 C 518.91392 872.37383 528.80098 874.25498 549.51172 884.01172 L 549.57227 884.03906 L 549.63281 884.06836 C 578.26079 897.40462 594.00199 910.24027 619.83203 944.32812 L 619.9668 944.50391 L 620.10352 944.67969 C 629.17749 956.305 639.3418 968.33398 639.3418 968.33398 L 651.7793 983.06836 L 670.50977 978.49805 C 670.50977 978.49805 684.15699 975.41097 698.94922 967.5957 C 859.53592 898.18271 972.5714 748.09779 994.99414 574.5918 L 995 574.55273 L 995.00586 574.51367 C 999.34319 540.26791 1000.108 486.29119 996.01562 453.50391 C 982.71131 341.98826 935.26564 242.62157 857.44922 162.48242 L 857.41797 162.44922 L 857.38672 162.41797 C 777.30795 80.431261 673.84168 28.104157 563.85938 15.097656 C 540.65216 12.344792 518.28721 10.967478 496.43164 11 z M 496.49414 73.085938 C 515.64364 73.126121 535.47516 74.423276 556.53711 76.921875 L 556.54297 76.921875 L 556.54883 76.923828 C 651.68638 88.174793 742.21885 133.61983 812.81641 205.88477 C 881.65214 276.78811 922.44897 362.22946 934.20898 460.97656 L 934.2207 461.07031 L 934.23242 461.16211 C 936.89453 482.43451 936.45479 541.28208 933.24414 566.66602 C 913.58182 718.66225 814.04499 850.49047 673.16016 910.92773 L 672.89062 911.04297 C 671.64296 909.48022 670.38647 907.9211 669.17969 906.375 L 669.45117 906.72852 C 640.10811 868.00454 612.19473 844.54749 576.00195 827.67188 C 548.66415 814.80104 522.03324 809.91793 489.875 811.42969 C 471.5049 812.078 457.31311 813.90581 444.21289 818.42773 C 396.82697 834.14663 356.19393 866.24049 325.22656 910.49414 C 292.46461 896.13977 256.19835 874.45729 226.57617 850.79688 L 226.55078 850.77734 L 226.52539 850.75781 C 139.85724 781.82272 81.326342 677.90836 66.681641 566.53516 L 66.675781 566.48438 L 66.667969 566.43555 C 63.606985 543.72204 63.077899 481.30402 65.527344 461.03711 C 75.249761 381.79506 103.30247 311.23276 150.01172 248.71094 L 150.02734 248.69141 L 150.04297 248.66992 C 166.13902 227.05013 216.32677 176.56234 236.33594 161.58984 C 273.89465 133.56226 313.42297 112.45021 353.83398 98.242188 C 403.06739 81.078568 447.55654 72.983245 496.49414 73.085938 z M 719.02539 181.36328 C 663.68354 181.36328 618.15234 226.89447 618.15234 282.23633 C 618.15234 337.57819 663.68354 383.10742 719.02539 383.10742 C 774.36725 383.10742 819.89844 337.57819 819.89844 282.23633 C 819.89844 226.89447 774.36725 181.36328 719.02539 181.36328 z M 280.98047 188.70508 C 225.63862 188.70508 180.10547 234.23628 180.10547 289.57812 C 180.10547 344.91998 225.63862 390.45117 280.98047 390.45117 C 336.32232 390.45117 381.85352 344.91999 381.85352 289.57812 C 381.85352 234.23628 336.32232 188.70509 280.98047 188.70508 z M 719.02539 243.61914 C 740.72142 243.61914 757.64258 260.5403 757.64258 282.23633 C 757.64258 303.93236 740.72142 320.85156 719.02539 320.85156 C 697.32936 320.85156 680.4082 303.93236 680.4082 282.23633 C 680.4082 260.5403 697.32936 243.61914 719.02539 243.61914 z M 280.98047 250.96094 C 302.67652 250.96094 319.59766 267.88209 319.59766 289.57812 C 319.59766 311.27416 302.67652 328.19336 280.98047 328.19336 C 259.28444 328.19336 242.36133 311.27416 242.36133 289.57812 C 242.36133 267.88209 259.28444 250.96094 280.98047 250.96094 z M 325.10352 910.62305 L 325.12891 910.63281 C 324.05548 912.16867 322.99162 913.71653 321.94141 915.28125 L 325.10352 910.62305 z "
         transform="matrix(9.6375733,0,0,-9.6375733,181.18921,4839.127)"
         id="path4487" /></g></g><path
     style="color:#000000;font-style:normal;font-variant:normal;font-weight:normal;font-stretch:normal;font-size:medium;line-height:normal;font-family:sans-serif;font-variant-ligatures:normal;font-variant-position:normal;font-variant-caps:normal;font-variant-numeric:normal;font-variant-alternates:normal;font-feature-settings:normal;text-indent:0;text-align:start;text-decoration:none;text-decoration-line:none;text-decoration-style:solid;text-decoration-color:#000000;letter-spacing:normal;word-spacing:normal;text-transform:none;writing-mode:lr-tb;direction:ltr;text-orientation:mixed;dominant-baseline:auto;baseline-shift:baseline;text-anchor:start;white-space:normal;shape-padding:0;clip-rule:nonzero;display:inline;overflow:visible;visibility:visible;opacity:1;isolation:auto;mix-blend-mode:normal;color-interpolation:sRGB;color-interpolation-filters:linearRGB;solid-color:#000000;solid-opacity:1;vector-effect:none;fill:#165ea0;fill-opacity:1;fill-rule:nonzero;stroke:none;stroke-width:62.25634003;stroke-linecap:butt;stroke-linejoin:bevel;stroke-miterlimit:4;stroke-dasharray:none;stroke-dashoffset:0;stroke-opacity:1;color-rendering:auto;image-rendering:auto;shape-rendering:auto;text-rendering:auto;enable-background:accumulate"
     d="M 498.7793 100.60547 C 443.43745 100.60547 397.90625 146.13667 397.90625 201.47852 C 397.90625 256.82038 443.43745 302.35156 498.7793 302.35156 C 554.12116 302.35156 599.65039 256.82038 599.65039 201.47852 C 599.65039 146.13667 554.12116 100.60546 498.7793 100.60547 z M 498.7793 162.86133 C 520.47533 162.86133 537.39453 179.78249 537.39453 201.47852 C 537.39453 223.17455 520.47533 240.0957 498.7793 240.0957 C 477.08327 240.0957 460.16211 223.17455 460.16211 201.47852 C 460.16211 179.78249 477.08327 162.86133 498.7793 162.86133 z M 195.32812 400.38672 C 139.98627 400.38672 94.455078 445.91791 94.455078 501.25977 C 94.455078 556.60162 139.98626 602.13281 195.32812 602.13281 C 250.66997 602.13281 296.19922 556.60162 296.19922 501.25977 C 296.19922 445.91791 250.66998 400.38672 195.32812 400.38672 z M 808.34766 401.60938 C 753.00581 401.60938 707.47461 447.14252 707.47461 502.48438 C 707.47461 557.82623 753.00581 603.35547 808.34766 603.35547 C 863.68952 603.35547 909.2207 557.82622 909.2207 502.48438 C 909.2207 447.14252 863.68952 401.60938 808.34766 401.60938 z M 195.32812 462.64258 C 217.02417 462.64258 233.94336 479.56374 233.94336 501.25977 C 233.94336 522.9558 217.02417 539.875 195.32812 539.875 C 173.63209 539.875 156.71094 522.9558 156.71094 501.25977 C 156.71094 479.56374 173.6321 462.64258 195.32812 462.64258 z M 808.34766 463.86523 C 830.04369 463.86523 846.96484 480.78834 846.96484 502.48438 C 846.96484 524.1804 830.04369 541.09961 808.34766 541.09961 C 786.65163 541.09961 769.73047 524.18039 769.73047 502.48438 C 769.73047 480.78834 786.65163 463.86524 808.34766 463.86523 z "
     id="path4549" /></svg>