<?xml version="1.0" encoding="utf-8"?>
<!-- Generated by IcoMoon.io -->
<!DOCTYPE svg PUBLIC "-//W3C//DTD SVG 1.1//EN" "http://www.w3.org/Graphics/SVG/1.1/DTD/svg11.dtd">
<svg version="1.1" xmlns="http://www.w3.org/2000/svg" xmlns:xlink="http://www.w3.org/1999/xlink" width="24" height="24" viewBox="0 0 24 24">
<path d="M17.016 15.984v-1.969h6v1.969c0 1.313-0.844 2.391-2.016 2.813v4.219h-2.016v-4.219c-1.172-0.422-1.969-1.5-1.969-2.813zM12.984 2.016v3.984h2.016v6h-6v-6h2.016v-3.984c0-0.563 0.422-1.031 0.984-1.031s0.984 0.469 0.984 1.031zM21 6h2.016v6h-6v-6h1.969v-3.984c0-0.563 0.469-1.031 1.031-1.031s0.984 0.469 0.984 1.031v3.984zM0.984 15.984v-1.969h6v1.969c0 1.313-0.797 2.391-1.969 2.813v4.219h-2.016v-4.219c-1.172-0.422-2.016-1.5-2.016-2.813zM9 15.984v-1.969h6v1.969c0 1.313-0.844 2.391-2.016 2.813v4.219h-1.969v-4.219c-1.172-0.422-2.016-1.5-2.016-2.813zM5.016 2.016v3.984h1.969v6h-6v-6h2.016v-3.984c0-0.563 0.422-1.031 0.984-1.031s1.031 0.469 1.031 1.031z"></path>
</svg>
