<?xml version="1.0" encoding="utf-8"?>
<!-- Generated by IcoMoon.io -->
<!DOCTYPE svg PUBLIC "-//W3C//DTD SVG 1.1//EN" "http://www.w3.org/Graphics/SVG/1.1/DTD/svg11.dtd">
<svg version="1.1" xmlns="http://www.w3.org/2000/svg" xmlns:xlink="http://www.w3.org/1999/xlink" width="24" height="24" viewBox="0 0 24 24">
<path d="M12 12c1.641 0 3 1.359 3 3s-1.359 3-3 3-3-1.359-3-3 1.359-3 3-3zM12 20.016c2.766 0 5.016-2.25 5.016-5.016s-2.25-5.016-5.016-5.016-5.016 2.25-5.016 5.016 2.25 5.016 5.016 5.016zM12 3.984c-1.125 0-2.016 0.938-2.016 2.016s0.891 2.016 2.016 2.016c1.078 0 2.016-0.938 2.016-2.016s-0.938-2.016-2.016-2.016zM17.016 2.016c1.078 0 1.969 0.891 1.969 1.969v16.031c0 1.078-0.891 1.969-1.969 1.969h-10.031c-1.078 0-1.969-0.891-1.969-1.969v-16.031c0-1.078 0.891-1.969 1.969-1.969h10.031z"></path>
</svg>
