<?xml version="1.0" encoding="UTF-8" standalone="no"?>
<svg
   xmlns:dc="http://purl.org/dc/elements/1.1/"
   xmlns:cc="http://creativecommons.org/ns#"
   xmlns:rdf="http://www.w3.org/1999/02/22-rdf-syntax-ns#"
   xmlns:svg="http://www.w3.org/2000/svg"
   xmlns="http://www.w3.org/2000/svg"
   xmlns:sodipodi="http://sodipodi.sourceforge.net/DTD/sodipodi-0.dtd"
   xmlns:inkscape="http://www.inkscape.org/namespaces/inkscape"
   width="32"
   height="32"
   viewBox="0 0 32 32"
   version="1.1"
   id="svg3684"
   sodipodi:docname="speaker-outline-path.svg"
   inkscape:version="0.92.0 r15299">
  <metadata
     id="metadata3690">
    <rdf:RDF>
      <cc:Work
         rdf:about="">
        <dc:format>image/svg+xml</dc:format>
        <dc:type
           rdf:resource="http://purl.org/dc/dcmitype/StillImage" />
        <dc:title></dc:title>
      </cc:Work>
    </rdf:RDF>
  </metadata>
  <defs
     id="defs3688" />
  <sodipodi:namedview
     pagecolor="#ffffff"
     bordercolor="#666666"
     borderopacity="1"
     objecttolerance="10"
     gridtolerance="10"
     guidetolerance="10"
     inkscape:pageopacity="0"
     inkscape:pageshadow="2"
     inkscape:window-width="1920"
     inkscape:window-height="1017"
     id="namedview3686"
     showgrid="false"
     inkscape:zoom="26.5"
     inkscape:cx="9.8679245"
     inkscape:cy="16"
     inkscape:window-x="-8"
     inkscape:window-y="-8"
     inkscape:window-maximized="1"
     inkscape:current-layer="svg3684" />
  <path
     style="color:#000000;font-style:normal;font-variant:normal;font-weight:normal;font-stretch:normal;font-size:medium;line-height:normal;font-family:sans-serif;font-variant-ligatures:normal;font-variant-position:normal;font-variant-caps:normal;font-variant-numeric:normal;font-variant-alternates:normal;font-feature-settings:normal;text-indent:0;text-align:start;text-decoration:none;text-decoration-line:none;text-decoration-style:solid;text-decoration-color:#000000;letter-spacing:normal;word-spacing:normal;text-transform:none;writing-mode:lr-tb;direction:ltr;text-orientation:mixed;dominant-baseline:auto;baseline-shift:baseline;text-anchor:start;white-space:normal;shape-padding:0;clip-rule:nonzero;display:inline;overflow:visible;visibility:visible;opacity:1;isolation:auto;mix-blend-mode:normal;color-interpolation:sRGB;color-interpolation-filters:linearRGB;solid-color:#000000;solid-opacity:1;vector-effect:none;fill:#000000;fill-opacity:1;fill-rule:nonzero;stroke:none;stroke-width:2;stroke-linecap:butt;stroke-linejoin:miter;stroke-miterlimit:4;stroke-dasharray:none;stroke-dashoffset:0;stroke-opacity:1;color-rendering:auto;image-rendering:auto;shape-rendering:auto;text-rendering:auto;enable-background:accumulate"
     d="m 8.4570312,-0.01757813 c -2.1738317,0 -3.9628906,1.79013023 -3.9628906,3.96289063 V 28.054688 c 0,2.17276 1.7890589,3.96289 3.9628906,3.96289 H 23.542969 c 2.173832,0 3.96289,-1.79013 3.96289,-3.96289 V 3.9453125 c 0,-2.1727604 -1.789058,-3.96289063 -3.96289,-3.96289063 z m 0,2.00000003 H 23.542969 c 1.072168,0 1.96289,0.891651 1.96289,1.9628906 V 28.054688 c 0,1.071239 -0.890722,1.96289 -1.96289,1.96289 H 8.4570312 c -1.0721682,0 -1.9628906,-0.891651 -1.9628906,-1.96289 V 3.9453125 c 0,-1.0712396 0.8907224,-1.9628906 1.9628906,-1.9628906 z M 15.998047,14.998047 c -3.021451,0 -5.509766,2.495631 -5.509766,5.513672 0,3.02037 2.489126,5.511719 5.509766,5.511719 3.019864,0 5.513672,-2.490809 5.513672,-5.511719 0,-3.018582 -2.492998,-5.513672 -5.513672,-5.513672 z m 0,2 c 1.915326,0 3.513672,1.600254 3.513672,3.513672 0,1.917089 -1.597536,3.511719 -3.513672,3.511719 -1.91736,0 -3.509766,-1.59409 -3.509766,-3.511719 0,-1.913959 1.593216,-3.513672 3.509766,-3.513672 z"
     id="path3680"
     inkscape:connector-curvature="0" />
  <path
     style="color:#000000;font-style:normal;font-variant:normal;font-weight:normal;font-stretch:normal;font-size:medium;line-height:normal;font-family:sans-serif;font-variant-ligatures:normal;font-variant-position:normal;font-variant-caps:normal;font-variant-numeric:normal;font-variant-alternates:normal;font-feature-settings:normal;text-indent:0;text-align:start;text-decoration:none;text-decoration-line:none;text-decoration-style:solid;text-decoration-color:#000000;letter-spacing:normal;word-spacing:normal;text-transform:none;writing-mode:lr-tb;direction:ltr;text-orientation:mixed;dominant-baseline:auto;baseline-shift:baseline;text-anchor:start;white-space:normal;shape-padding:0;clip-rule:nonzero;display:inline;overflow:visible;visibility:visible;opacity:1;isolation:auto;mix-blend-mode:normal;color-interpolation:sRGB;color-interpolation-filters:linearRGB;solid-color:#000000;solid-opacity:1;vector-effect:none;fill:#000000;fill-opacity:1;fill-rule:nonzero;stroke:none;stroke-width:2;stroke-linecap:butt;stroke-linejoin:miter;stroke-miterlimit:4;stroke-dasharray:none;stroke-dashoffset:0;stroke-opacity:1;color-rendering:auto;image-rendering:auto;shape-rendering:auto;text-rendering:auto;enable-background:accumulate"
     d="m 16.011719,2.9648438 c -2.247046,0 -4.033203,1.8558758 -4.033203,4.0292968 0,2.1721002 1.784975,4.0312504 4.033203,4.0312504 2.201531,0 4.033203,-1.8299501 4.033203,-4.0312504 0,-2.2025851 -1.832905,-4.0292969 -4.033203,-4.0292968 z m 0,2 c 1.043701,0 2.033203,0.985882 2.033203,2.0292968 0,1.0406998 -0.990735,2.03125 -2.033203,2.03125 -1.137773,0 -2.033203,-0.9613501 -2.033203,-2.03125 0,-1.0725789 0.894249,-2.0292969 2.033203,-2.0292968 z m 0,7.0214842 c -4.702148,0 -8.542969,3.840821 -8.542969,8.542969 0,4.703017 3.840982,8.542969 8.542969,8.542969 4.701987,0 8.542969,-3.840112 8.542969,-8.542969 0,-4.701987 -3.840822,-8.542969 -8.542969,-8.542969 z m 0,2 c 3.617852,0 6.542969,2.924956 6.542969,6.542969 0,3.619143 -2.924956,6.542969 -6.542969,6.542969 -3.618013,0 -6.542969,-2.923986 -6.542969,-6.542969 0,-3.617853 2.925116,-6.542969 6.542969,-6.542969 z"
     id="path3682"
     inkscape:connector-curvature="0" />
</svg>
