<?xml version="1.0" encoding="UTF-8" standalone="no"?>
<svg
   xmlns:dc="http://purl.org/dc/elements/1.1/"
   xmlns:cc="http://creativecommons.org/ns#"
   xmlns:rdf="http://www.w3.org/1999/02/22-rdf-syntax-ns#"
   xmlns:svg="http://www.w3.org/2000/svg"
   xmlns="http://www.w3.org/2000/svg"
   xmlns:sodipodi="http://sodipodi.sourceforge.net/DTD/sodipodi-0.dtd"
   xmlns:inkscape="http://www.inkscape.org/namespaces/inkscape"
   width="32"
   height="32"
   viewBox="0 0 32 32"
   version="1.1"
   id="svg4505"
   sodipodi:docname="speaker-outline-color-path.svg"
   inkscape:version="0.92.0 r15299">
  <metadata
     id="metadata4511">
    <rdf:RDF>
      <cc:Work
         rdf:about="">
        <dc:format>image/svg+xml</dc:format>
        <dc:type
           rdf:resource="http://purl.org/dc/dcmitype/StillImage" />
        <dc:title></dc:title>
      </cc:Work>
    </rdf:RDF>
  </metadata>
  <defs
     id="defs4509" />
  <sodipodi:namedview
     pagecolor="#ffffff"
     bordercolor="#666666"
     borderopacity="1"
     objecttolerance="10"
     gridtolerance="10"
     guidetolerance="10"
     inkscape:pageopacity="0"
     inkscape:pageshadow="2"
     inkscape:window-width="1920"
     inkscape:window-height="1017"
     id="namedview4507"
     showgrid="false"
     inkscape:zoom="20.85965"
     inkscape:cx="6.7449497"
     inkscape:cy="17.869093"
     inkscape:window-x="-8"
     inkscape:window-y="-8"
     inkscape:window-maximized="1"
     inkscape:current-layer="svg4505" />
  <path
     style="color:#000000;font-style:normal;font-variant:normal;font-weight:normal;font-stretch:normal;font-size:medium;line-height:normal;font-family:sans-serif;font-variant-ligatures:normal;font-variant-position:normal;font-variant-caps:normal;font-variant-numeric:normal;font-variant-alternates:normal;font-feature-settings:normal;text-indent:0;text-align:start;text-decoration:none;text-decoration-line:none;text-decoration-style:solid;text-decoration-color:#000000;letter-spacing:normal;word-spacing:normal;text-transform:none;writing-mode:lr-tb;direction:ltr;text-orientation:mixed;dominant-baseline:auto;baseline-shift:baseline;text-anchor:start;white-space:normal;shape-padding:0;clip-rule:nonzero;display:inline;overflow:visible;visibility:visible;opacity:1;isolation:auto;mix-blend-mode:normal;color-interpolation:sRGB;color-interpolation-filters:linearRGB;solid-color:#000000;solid-opacity:1;vector-effect:none;fill:#000000;fill-opacity:1;fill-rule:nonzero;stroke:none;stroke-width:2;stroke-linecap:butt;stroke-linejoin:miter;stroke-miterlimit:4;stroke-dasharray:none;stroke-dashoffset:0;stroke-opacity:1;color-rendering:auto;image-rendering:auto;shape-rendering:auto;text-rendering:auto;enable-background:accumulate"
     d="m 8.4648438,-0.00390625 c -2.1721002,0 -3.9609376,1.78795555 -3.9609376,3.95898435 V 28.044922 c 0,2.171689 1.7892487,3.958984 3.9609376,3.958984 H 23.535156 c 2.171689,0 3.960938,-1.786884 3.960938,-3.958984 V 3.9550781 c 0,-2.1714403 -1.788838,-3.95898435 -3.960938,-3.95898435 z m 0,2.00000005 H 23.535156 c 1.0699,0 1.960938,0.8904247 1.960938,1.9589843 V 28.044922 c 0,1.0699 -0.890627,1.958984 -1.960938,1.958984 H 8.4648438 c -1.0703112,0 -1.9609375,-0.888673 -1.9609376,-1.958984 V 3.9550781 c 0,-1.0689712 0.8910377,-1.9589843 1.9609376,-1.9589843 z M 15.998047,14.998047 c -3.018582,0 -5.505859,2.493817 -5.505859,5.509765 0,3.017501 2.487818,5.507813 5.505859,5.507813 3.017265,0 5.509766,-2.489501 5.509765,-5.507813 0,-3.016759 -2.491959,-5.509765 -5.509765,-5.509765 z m 0,2 c 1.912194,0 3.509765,1.598525 3.509765,3.509765 0,1.913689 -1.59703,3.507813 -3.509765,3.507813 -1.913959,0 -3.505859,-1.593313 -3.505859,-3.507813 0,-1.912051 1.592441,-3.509765 3.505859,-3.509765 z"
     id="path4501"
     inkscape:connector-curvature="0" />
  <path
     style="color:#000000;font-style:normal;font-variant:normal;font-weight:normal;font-stretch:normal;font-size:medium;line-height:normal;font-family:sans-serif;font-variant-ligatures:normal;font-variant-position:normal;font-variant-caps:normal;font-variant-numeric:normal;font-variant-alternates:normal;font-feature-settings:normal;text-indent:0;text-align:start;text-decoration:none;text-decoration-line:none;text-decoration-style:solid;text-decoration-color:#000000;letter-spacing:normal;word-spacing:normal;text-transform:none;writing-mode:lr-tb;direction:ltr;text-orientation:mixed;dominant-baseline:auto;baseline-shift:baseline;text-anchor:start;white-space:normal;shape-padding:0;clip-rule:nonzero;display:inline;overflow:visible;visibility:visible;opacity:1;isolation:auto;mix-blend-mode:normal;color-interpolation:sRGB;color-interpolation-filters:linearRGB;solid-color:#000000;solid-opacity:1;vector-effect:none;fill:#632b9b;fill-opacity:1;fill-rule:nonzero;stroke:none;stroke-width:2;stroke-linecap:butt;stroke-linejoin:miter;stroke-miterlimit:4;stroke-dasharray:none;stroke-dashoffset:0;stroke-opacity:1;color-rendering:auto;image-rendering:auto;shape-rendering:auto;text-rendering:auto;enable-background:accumulate"
     d="m 16.011719,2.9765625 c -2.244913,0 -4.029297,1.854113 -4.029297,4.0253906 0,2.1712776 1.782807,4.0292969 4.029297,4.0292969 2.20112,0 4.03125,-1.8284079 4.03125,-4.0292969 0,-2.2008889 -1.831774,-4.0253906 -4.03125,-4.0253906 z m 0,2 c 1.044523,0 2.03125,0.9842796 2.03125,2.0253906 0,1.0411111 -0.988371,2.0292969 -2.03125,2.0292969 -1.13551,0 -2.029297,-0.9585745 -2.029297,-2.0292969 0,-1.0707224 0.89221,-2.0253906 2.029297,-2.0253906 z m 0,7.0136715 c -4.698349,0 -8.5351565,3.837999 -8.5351565,8.535157 0,4.698897 3.8369685,8.537109 8.5351565,8.537109 4.699927,0 8.537109,-3.838212 8.537109,-8.537109 0,-4.697158 -3.837022,-8.535157 -8.537109,-8.535157 z m 0,2 c 3.615912,0 6.537109,2.922315 6.537109,6.535157 0,3.615102 -2.921036,6.537109 -6.537109,6.537109 -3.613812,0 -6.5351565,-2.922007 -6.5351565,-6.537109 0,-3.612842 2.9215045,-6.535157 6.5351565,-6.535157 z"
     id="path4503"
     inkscape:connector-curvature="0" />
</svg>
