<?xml version="1.0" encoding="iso-8859-1"?>
<!-- Generator: Adobe Illustrator 19.0.0, SVG Export Plug-In . SVG Version: 6.00 Build 0)  -->
<svg version="1.1" id="Layer_1" xmlns="http://www.w3.org/2000/svg" xmlns:xlink="http://www.w3.org/1999/xlink" x="0px" y="0px"
	 viewBox="0 0 512 512" style="enable-background:new 0 0 512 512;" xml:space="preserve">
<g>
	<g>
		<path d="M463.361,62.657H139.636V42.368c0-9.887-8.015-17.902-17.902-17.902s-17.902,8.015-17.902,17.902v20.289H79.963V42.368
			c0-9.887-8.015-17.902-17.902-17.902s-17.902,8.015-17.902,17.902v20.579C19.143,65.002,0,86.003,0,111.54v327.512
			c0,26.893,21.29,48.482,48.184,48.482h415.177c26.893,0,48.639-21.59,48.639-48.482V111.54
			C512,84.647,490.254,62.657,463.361,62.657z M464.422,451.73H48.771c-7.161,0-12.967-5.806-12.967-12.967V111.429
			c0-7.161,5.806-12.967,12.967-12.967h415.651c7.162,0,12.967,5.806,12.967,12.967v327.334h0
			C477.389,445.925,471.583,451.73,464.422,451.73z"/>
	</g>
</g>
<g>
	<g>
		<path d="M193.994,139.492c-74.882,0-135.804,60.921-135.804,135.804c0,74.882,60.921,135.803,135.804,135.803
			s135.804-60.921,135.804-135.803C329.797,200.413,268.876,139.492,193.994,139.492z M193.994,375.295
			c-55.14,0-100-44.859-100-99.999c0-55.141,44.859-100,100-100c55.141,0,100,44.859,100,100
			C293.993,330.436,249.134,375.295,193.994,375.295z"/>
	</g>
</g>
<g>
	<g>
		<path d="M193.994,229.951c-25.003,0-45.345,20.342-45.345,45.345c0,25.002,20.342,45.344,45.345,45.344
			c25.003,0,45.345-20.342,45.345-45.344C239.339,250.293,218.998,229.951,193.994,229.951z M193.994,284.836
			c-5.261,0-9.541-4.28-9.541-9.539c0-5.261,4.28-9.541,9.541-9.541c5.261,0,9.541,4.28,9.541,9.541
			C203.535,280.556,199.255,284.836,193.994,284.836z"/>
	</g>
</g>
<g>
	<g>
		<path d="M425.762,125.911h-55.357c-9.887,0-18.331,8.054-18.331,17.94v55.357c0,9.887,8.444,17.407,18.331,17.407h10.313V365.27
			c-7.565,2.092-13.128,9.007-13.128,17.239c0,9.887,8.015,17.902,17.902,17.902h26.256c9.887,0,17.902-8.015,17.902-17.902
			c0-8.231-5.563-15.146-13.128-17.239V216.615h9.24c9.887,0,18.21-7.52,18.21-17.407v-55.357
			C443.972,133.965,435.649,125.911,425.762,125.911z M408.168,180.811h-20.289v-19.096h20.289V180.811z"/>
	</g>
</g>
<g>
</g>
<g>
</g>
<g>
</g>
<g>
</g>
<g>
</g>
<g>
</g>
<g>
</g>
<g>
</g>
<g>
</g>
<g>
</g>
<g>
</g>
<g>
</g>
<g>
</g>
<g>
</g>
<g>
</g>
</svg>
